<svg xmlns="http://www.w3.org/2000/svg" version="1.1" xmlns:xlink="http://www.w3.org/1999/xlink" xmlns:svgjs="http://svgjs.dev/svgjs" width="1000" height="1000" viewBox="0 0 1000 1000"><rect width="1000" height="1000" fill="#ffffff"></rect><g transform="matrix(0.7,0,0,0.7,149.57575885835809,453.79405040145593)"><svg viewBox="0 0 396 52" data-background-color="#ffffff" preserveAspectRatio="xMidYMid meet" height="131" width="1000" xmlns="http://www.w3.org/2000/svg" xmlns:xlink="http://www.w3.org/1999/xlink"><g id="tight-bounds" transform="matrix(1,0,0,1,0.23999927441457203,0.20184710059203326)"><svg viewBox="0 0 395.52 51.59630579881593" height="51.59630579881593" width="395.52"><g><svg viewBox="0 0 461.97911057632655 60.26601805714286" height="51.59630579881593" width="395.52"><g transform="matrix(1,0,0,1,66.45911057632654,17.016274334693875)"><svg viewBox="0 0 395.52 26.233469387755104" height="26.233469387755104" width="395.52"><g id="textblocktransform"><svg viewBox="0 0 395.52 26.233469387755104" height="26.233469387755104" width="395.52" id="textblock"><g><svg viewBox="0 0 395.52 26.233469387755104" height="26.233469387755104" width="395.52"><g transform="matrix(1,0,0,1,0,0)"><svg width="395.52" viewBox="0.9500000476837158 -36.349998474121094 558.5599975585938 37.04999923706055" height="26.233469387755104" data-palette-color="#010c80"><path d="M17.85-10.95L17.85-10.95 11.9-10.95 9.95 0 0.95 0 7.3-36 22.55-36Q28.2-36 30.6-33.4L30.6-33.4Q32.35-31.4 32.35-28.3L32.35-28.3Q32.35-27.25 32.15-26.1L32.15-26.1 31.15-20.45Q30.4-16.3 26.75-13.63 23.1-10.95 17.85-10.95ZM19.4-28.2L19.4-28.2 14.9-28.2 13.25-18.75 17.7-18.75Q21.8-18.75 22.45-22.4L22.45-22.4 22.8-24.45Q22.9-24.9 22.9-25.65 22.9-26.4 22.15-27.3 21.4-28.2 19.4-28.2ZM59.35-7.8L57.95 0 32.85 0 39.2-36 64.3-36 62.9-28.2 46.8-28.2 45.65-21.45 58.95-21.45 57.55-13.65 44.25-13.65 43.25-7.8 59.35-7.8ZM70.05-36L84.55-36Q90.25-36 92.65-33.5L92.65-33.5Q94.45-31.6 94.45-28.7L94.45-28.7Q94.45-27.7 94.25-26.6L94.25-26.6 93.55-22.7Q92.95-19.45 91.47-17.45 90-15.45 88.2-14.6L88.2-14.6 92.75 0 82.65 0 78.45-13.45 75.34-13.45 73.3 0 63.7 0 70.05-36ZM81.4-28.2L81.4-28.2 77.65-28.2 76.34-19.5 79.84-19.5Q82.5-19.5 83.65-20.78 84.8-22.05 84.8-24.15L84.8-24.15Q84.8-28.2 81.4-28.2ZM106.04-10.25L106.04-10.25Q106.04-6.8 111.02-6.8 115.99-6.8 115.99-9.9L115.99-9.9Q115.99-11.55 114.29-12.6 112.59-13.65 110.17-14.35 107.74-15.05 105.32-15.98 102.89-16.9 101.19-18.88 99.49-20.85 99.49-23.8L99.49-23.8Q99.49-36.35 115.64-36.35L115.64-36.35Q121.54-36.35 124.57-34.13 127.59-31.9 127.59-27.95L127.59-27.95Q127.59-26.5 127.22-25.18 126.84-23.85 126.44-23.3L126.44-23.3 126.04-22.7 117.19-22.7Q118.29-23.85 118.29-25.6L118.29-25.6Q118.29-28.85 114.04-28.85L114.04-28.85Q108.69-28.85 108.69-25.45L108.69-25.45Q108.69-23.75 110.39-22.75 112.09-21.75 114.52-21.18 116.94-20.6 119.39-19.75 121.84-18.9 123.54-16.93 125.24-14.95 125.24-11.8L125.24-11.8Q125.24-5.45 121.44-2.38 117.64 0.7 109.74 0.7 101.84 0.7 98.94-2.1L98.94-2.1Q96.79-4.2 96.79-7.9L96.79-7.9Q96.79-9.3 97.09-10.95L97.09-10.95 97.24-11.75 106.24-11.75 106.14-11.15Q106.04-10.65 106.04-10.25ZM148.34-36.35L148.34-36.35Q160.39-36.35 160.39-26.5L160.39-26.5Q160.39-24.85 160.04-22.95L160.04-22.95 158.29-12.95Q157.09-6 153.09-2.65 149.09 0.7 141.84 0.7 134.59 0.7 131.74-2.65L131.74-2.65Q129.79-4.95 129.79-9L129.79-9Q129.79-10.8 130.19-12.95L130.19-12.95 131.94-22.95Q134.29-36.35 148.34-36.35ZM143.19-7.05L143.19-7.05Q145.69-7.05 147.19-8.35 148.69-9.65 149.29-13.15L149.29-13.15 150.99-22.75Q151.14-23.75 151.14-24.55L151.14-24.55Q151.14-28.6 147.04-28.6L147.04-28.6Q141.89-28.5 140.89-22.75L140.89-22.75 139.19-13.15Q138.99-11.9 138.99-10.55L138.99-10.55Q138.99-7.05 143.19-7.05ZM187.19-36L196.19-36 189.89 0 180.84 0 174.54-19.7 171.14 0 162.09 0 168.44-36 177.74-36 183.94-17.6 187.19-36ZM215.28-36L224.68-36 230.03-18.75 241.53-36 250.98-36 244.63 0 235.58 0 239.18-20.3 231.48-8.2 224.93-8.2 221.53-20.3 217.93 0 208.93 0 215.28-36ZM279.03 0L269.53 0 269.83-7.85 261.48-7.85 259.03 0 249.48 0 262.33-36 278.83-36 279.03 0ZM270.63-27.25L267.48-27.25 263.53-14.55 270.08-14.55 270.63-27.25ZM308.88-36L317.88-36 311.58 0 302.53 0 296.23-19.7 292.83 0 283.78 0 290.13-36 299.43-36 305.63-17.6 308.88-36ZM345.93 0L336.43 0 336.73-7.85 328.38-7.85 325.93 0 316.38 0 329.23-36 345.73-36 345.93 0ZM337.53-27.25L334.38-27.25 330.43-14.55 336.98-14.55 337.53-27.25ZM363.22 0.7L363.22 0.7Q356.12 0.7 353.42-2.6L353.42-2.6Q351.57-4.9 351.57-8.9L351.57-8.9Q351.57-10.75 351.97-12.95L351.97-12.95 353.72-22.95Q356.07-36.35 370.12-36.35L370.12-36.35Q375.92-36.35 378.92-33.88 381.92-31.4 381.92-27.1L381.92-27.1Q381.92-25.35 381.45-23.55 380.97-21.75 380.52-20.85L380.52-20.85 380.02-19.95 371.17-19.95Q372.47-21.75 372.47-24.1L372.47-24.1Q372.47-28.6 368.72-28.6L368.72-28.6Q363.67-28.6 362.67-22.75L362.67-22.75 360.97-13.15Q360.72-11.8 360.72-10.5L360.72-10.5Q360.72-7.05 364.8-7.05 368.87-7.05 370.02-11.15L370.02-11.15 365.92-11.15 366.92-16.7 380.17-16.7 379.37-12.4 379.12-10.95Q377.02 0.7 363.22 0.7ZM409.62-7.8L408.22 0 383.12 0 389.47-36 414.57-36 413.17-28.2 397.07-28.2 395.92-21.45 409.22-21.45 407.82-13.65 394.52-13.65 393.52-7.8 409.62-7.8ZM420.32-36L429.72-36 435.07-18.75 446.57-36 456.02-36 449.67 0 440.62 0 444.22-20.3 436.52-8.2 429.97-8.2 426.57-20.3 422.97 0 413.97 0 420.32-36ZM483.27-7.8L481.87 0 456.77 0 463.12-36 488.22-36 486.82-28.2 470.72-28.2 469.57-21.45 482.87-21.45 481.47-13.65 468.17-13.65 467.17-7.8 483.27-7.8ZM512.71-36L521.71-36 515.41 0 506.36 0 500.06-19.7 496.66 0 487.61 0 493.96-36 503.26-36 509.46-17.6 512.71-36ZM559.51-36L558.11-28.2 545.81-28.2 540.86 0 531.81 0 536.76-28.2 524.41-28.2 525.81-36 559.51-36Z" opacity="1" transform="matrix(1,0,0,1,0,0)" fill="#010c80" class="wordmark-text-0" data-fill-palette-color="primary" id="text-0"></path></svg></g></svg></g></svg></g></svg></g><g><svg viewBox="0 0 60.26601805714286 60.26601805714286" height="60.26601805714286" width="60.26601805714286"><g><svg></svg></g><g id="icon-0"><svg viewBox="0 0 60.26601805714286 60.26601805714286" height="60.26601805714286" width="60.26601805714286"><g><rect width="54.79743493714286" height="54.79743493714286" x="2.734291559999999" y="2.734291559999999" fill="#77d4fc" data-fill-palette-color="accent"></rect><rect width="54.79743493714286" height="54.79743493714286" x="5.468583119999999" y="-8.881784197001252e-16" fill="#77d4fc" opacity="0.5" data-fill-palette-color="accent"></rect></g><g transform="matrix(1,0,0,1,7.812261599999999,18.115913605895066)"><svg viewBox="0 0 44.64149485714286 24.03419084535272" height="24.03419084535272" width="44.64149485714286"><g><svg xmlns="http://www.w3.org/2000/svg" xmlns:xlink="http://www.w3.org/1999/xlink" version="1.1" x="0" y="0" viewBox="6.141999244689941 22.237001419067383 88.50401306152344 47.64899444580078" enable-background="new 0 0 100 100" xml:space="preserve" height="24.03419084535272" width="44.64149485714286" class="icon-s-0" data-fill-palette-color="background" id="s-0"><polygon points="50.827,46.708 50.827,43.066 49.962,43.066 49.962,46.708 13.261,46.708 13.261,49.169 14.126,49.169   14.126,47.573 31.614,47.573 31.614,49.169 32.479,49.169 32.479,47.573 49.962,47.573 49.962,49.169 50.827,49.169 50.827,47.573   68.766,47.573 68.766,49.169 69.631,49.169 69.631,47.573 86.752,47.573 86.752,49.169 87.617,49.169 87.617,46.708 " fill="#ffffff" data-fill-palette-color="background"></polygon><circle cx="50.71" cy="54.013" r="3.4" fill="#ffffff" data-fill-palette-color="background"></circle><path d="M45.141 69.885l0.191-2.883 0.695 0.018-0.048 2.866h9.017l-0.074-2.899h0.716l0.302 2.899h2.14l-1.217-9.748c-0.116-0.928-0.904-1.624-1.839-1.625l-9.132-0.01c-0.96-0.001-1.762 0.731-1.849 1.687l-0.885 9.696H45.141z" fill="#ffffff" data-fill-palette-color="background"></path><circle cx="32.047" cy="54.013" r="3.4" fill="#ffffff" data-fill-palette-color="background"></circle><path d="M26.478 69.885l0.191-2.883 0.695 0.018-0.048 2.866h9.017l-0.074-2.899h0.716l0.302 2.899h2.14l-1.217-9.748c-0.116-0.928-0.904-1.624-1.839-1.625l-9.132-0.01c-0.96-0.001-1.762 0.731-1.849 1.687l-0.885 9.696H26.478z" fill="#ffffff" data-fill-palette-color="background"></path><circle cx="69.198" cy="54.013" r="3.4" fill="#ffffff" data-fill-palette-color="background"></circle><path d="M63.629 69.885l0.191-2.883 0.695 0.018-0.048 2.866h9.017l-0.074-2.899h0.716l0.302 2.899h2.14l-1.217-9.748c-0.116-0.928-0.904-1.624-1.839-1.625l-9.132-0.01c-0.96-0.001-1.762 0.731-1.849 1.687l-0.885 9.696H63.629z" fill="#ffffff" data-fill-palette-color="background"></path><circle cx="13.694" cy="54.013" r="3.4" fill="#ffffff" data-fill-palette-color="background"></circle><path d="M8.125 69.885l0.191-2.883 0.695 0.018-0.048 2.866h9.017l-0.074-2.899h0.716l0.302 2.899h2.14l-1.217-9.748c-0.116-0.928-0.904-1.624-1.839-1.625l-9.132-0.01c-0.96-0.001-1.762 0.731-1.849 1.687l-0.885 9.696H8.125z" fill="#ffffff" data-fill-palette-color="background"></path><circle cx="87.277" cy="54.013" r="3.4" fill="#ffffff" data-fill-palette-color="background"></circle><path d="M81.707 69.885l0.191-2.883 0.695 0.018-0.048 2.866h9.017l-0.074-2.899h0.716l0.302 2.899h2.14l-1.217-9.748c-0.116-0.928-0.904-1.624-1.839-1.625l-9.132-0.01c-0.96-0.001-1.762 0.731-1.849 1.687l-0.885 9.696H81.707z" fill="#ffffff" data-fill-palette-color="background"></path><circle cx="50.393" cy="25.588" r="3.4" fill="#ffffff" data-fill-palette-color="background"></circle><path d="M56.545 31.712c-0.116-0.928-0.904-1.624-1.839-1.625l-9.132-0.01c-0.96-0.001-1.762 0.731-1.85 1.687L42.84 41.46h1.984l0.191-2.883 0.695 0.018-0.048 2.866h9.017l-0.074-2.899h0.716l0.302 2.899h2.14L56.545 31.712zM50.369 40.85l-1.354-1.957 0.845-6.876c-0.097-0.052-0.163-0.153-0.163-0.271v-0.75c0-0.171 0.139-0.309 0.31-0.309h0.75c0.171 0 0.309 0.139 0.309 0.309v0.75c0 0.129-0.079 0.239-0.19 0.286l0.899 6.862L50.369 40.85z" fill="#ffffff" data-fill-palette-color="background"></path></svg></g></svg></g></svg></g></svg></g></svg></g><defs></defs></svg><rect width="395.52" height="51.59630579881593" fill="none" stroke="none" visibility="hidden"></rect></g></svg></g></svg>